<?xml version="1.0" encoding="UTF-8" standalone="no"?>
<!DOCTYPE svg PUBLIC "-//W3C//DTD SVG 1.1//EN" "http://www.w3.org/Graphics/SVG/1.1/DTD/svg11.dtd">
<!-- Created with Vectornator (http://vectornator.io/) -->
<svg height="100%" stroke-miterlimit="10" style="fill-rule:nonzero;clip-rule:evenodd;stroke-linecap:round;stroke-linejoin:round;" version="1.1" viewBox="0 0 128 128" width="100%" xml:space="preserve" xmlns="http://www.w3.org/2000/svg" xmlns:vectornator="http://vectornator.io" xmlns:xlink="http://www.w3.org/1999/xlink">
<defs/>
<g id="Layer-1" vectornator:layerName="Layer 1">
<path d="M61.0439 28.1121L63.5582 25.4283L65.9994 28.1121L63.5582 31.1147L61.0439 28.1121Z" fill="#67151c" fill-rule="nonzero" opacity="1" stroke="#67151c" stroke-linecap="butt" stroke-linejoin="round" stroke-width="1.16381" vectornator:layerName="Curve 2"/>
<path d="M69.6659 28.1121L72.1803 25.4283L74.6214 28.1121L72.1803 31.1147L69.6659 28.1121Z" fill="#67151c" fill-rule="nonzero" opacity="1" stroke="#67151c" stroke-linecap="butt" stroke-linejoin="round" stroke-width="1.16381" vectornator:layerName="Curve 3"/>
<path d="M57.5829 38.8011L57.5829 25.4485C57.5829 25.4413 57.5918 25.4378 57.5966 25.4431L63.7483 32.1076C63.7517 32.1113 63.7576 32.1109 63.7605 32.1069L68.5807 25.4384C68.5841 25.4337 68.5913 25.4342 68.594 25.4393L72.2368 32.1045C72.2395 32.1094 72.2463 32.11 72.2498 32.1058L77.7883 25.4451C77.793 25.4394 77.8023 25.4427 77.8023 25.4501L77.8023 38.8011C77.8023 38.8011 102.364 41.4893 103.347 69.9254C104.33 98.3615 72.2424 102.384 72.2424 102.384C72.2424 102.384 35.9627 101.05 35.9627 69.9254C35.9627 38.8011 57.5829 38.8011 57.5829 38.8011Z" fill="#c02e3b" fill-rule="nonzero" opacity="1" stroke="#c02e3b" stroke-linecap="butt" stroke-linejoin="round" stroke-width="1.16381" vectornator:layerName="Curve 1"/>
<g opacity="1" vectornator:layerName="Curve 4">
<path d="M72.4743 101.986C72.3461 101.986 72.1927 102.052 72.0646 102.174C71.8596 102.371 71.7968 102.638 71.9244 102.771C72.0578 102.745 72.853 102.547 72.6308 102.363C72.5917 102.331 72.4849 102.371 72.4199 102.349C72.4153 102.344 72.4097 102.34 72.4031 102.337C72.5717 102.244 72.6157 102.426 72.6635 102.186C72.6717 102.145 72.6657 102.102 72.6669 102.06C72.619 102.01 72.5512 101.986 72.4743 101.986ZM72.2562 102.479C72.2569 102.48 72.2575 102.481 72.2583 102.482C72.2693 102.507 72.2912 102.529 72.2914 102.556C72.2933 102.724 72.188 102.594 72.2204 102.537C72.2316 102.518 72.2436 102.498 72.2562 102.479Z" fill="#c02e3b" stroke="none"/>
</g>
<g opacity="1" vectornator:layerName="Curve 5">
<path d="M72.3222 102.123C72.2009 102.123 72.0714 102.239 72.0054 102.411C72.0753 102.281 72.1883 102.179 72.3267 102.187C72.3553 102.189 72.2604 102.209 72.256 102.237C72.2557 102.238 72.2554 102.239 72.2552 102.24C72.2441 102.285 72.2379 102.331 72.2346 102.378C72.2309 102.38 72.2272 102.382 72.2236 102.385C72.0821 102.482 72.0392 102.497 72.1037 102.737C72.1117 102.767 72.1634 102.753 72.1939 102.758C72.1998 102.759 72.2126 102.757 72.2286 102.752C72.2317 102.796 72.238 102.839 72.2492 102.881C72.2549 102.903 72.2732 102.902 72.2951 102.889C72.5972 102.906 72.8606 102.522 72.7818 102.248C72.7429 102.113 72.4938 102.138 72.3772 102.131C72.3593 102.125 72.3409 102.123 72.3222 102.123ZM72.0054 102.411C71.937 102.539 71.9096 102.694 71.9397 102.8C71.9515 102.841 71.996 102.864 72.044 102.879C71.9628 102.791 71.9381 102.622 71.9918 102.45C71.9959 102.437 72.0005 102.424 72.0054 102.411ZM72.044 102.879C72.0673 102.904 72.0951 102.922 72.1271 102.932C72.2587 102.9 72.1438 102.909 72.044 102.879ZM72.4118 102.334C72.4406 102.338 72.4685 102.349 72.4731 102.367C72.4757 102.377 72.4778 102.387 72.4797 102.397C72.4573 102.392 72.4357 102.388 72.4162 102.384C72.4154 102.367 72.414 102.35 72.4118 102.334ZM72.4633 102.631C72.4626 102.633 72.462 102.635 72.4613 102.637C72.4452 102.685 72.4255 102.703 72.4054 102.709C72.407 102.698 72.4084 102.686 72.4095 102.675C72.4337 102.668 72.4518 102.658 72.4487 102.643C72.4475 102.638 72.4357 102.641 72.4331 102.636C72.4328 102.635 72.4323 102.635 72.4319 102.634C72.4424 102.633 72.4529 102.632 72.4633 102.631Z" fill="#c02e3b" stroke="none"/>
</g>
<path d="M72.3101 102.575" fill="none" opacity="1" stroke="#c02e3b" stroke-linecap="butt" stroke-linejoin="round" stroke-width="1.16381" vectornator:layerName="Curve 6"/>
<path d="M72.3391 102.532" fill="none" opacity="1" stroke="#c02e3b" stroke-linecap="butt" stroke-linejoin="round" stroke-width="1.16381" vectornator:layerName="Curve 7"/>
<path d="M72.2522 102.604" fill="none" opacity="1" stroke="#c02e3b" stroke-linecap="butt" stroke-linejoin="round" stroke-width="1.16381" vectornator:layerName="Curve 8"/>
<g opacity="1" vectornator:layerName="Curve 9">
<path d="M72.2791 102.298C72.0285 102.3 71.8266 102.434 71.828 102.597C71.8861 102.633 71.9829 102.842 72.0218 102.825C72.022 102.825 72.0227 102.824 72.0244 102.823C72.0244 102.823 72.0244 102.823 72.0245 102.823C72.0245 102.823 72.0246 102.823 72.0246 102.823C72.0436 102.809 72.0623 102.794 72.0812 102.78C72.135 102.762 72.2831 102.708 72.2836 102.708C72.3125 102.718 72.3484 102.69 72.3638 102.646C72.3746 102.615 72.3724 102.584 72.3602 102.565C72.4143 102.523 72.4683 102.481 72.5219 102.438C72.522 102.438 72.522 102.438 72.5221 102.438C72.5814 102.392 72.6072 102.642 72.7352 102.589C72.7338 102.426 72.5296 102.296 72.2791 102.298ZM72.4748 102.463C72.4765 102.462 72.4767 102.463 72.4756 102.464C72.4755 102.464 72.4754 102.464 72.4753 102.464C72.4347 102.495 72.3944 102.526 72.3542 102.557C72.35 102.553 72.3451 102.549 72.3395 102.547C72.2525 102.554 72.4544 102.465 72.4748 102.463Z" fill="#c02e3b" stroke="none"/>
</g>
</g>
<g id="Layer-2" vectornator:layerName="Layer 2">
<path d="M79.4389 40.9175C79.4389 40.9175 88.3611 42.4823 95.7682 51.0708C103.175 59.6594 100.778 68.6816 100.778 68.6816C100.778 68.6816 96.8195 81.2344 84.0349 70.3995C71.2503 59.5645 72.597 45.7533 72.597 45.7533C72.597 45.7533 71.9953 40.2186 79.4389 40.9175Z" fill="#d5ab77" fill-rule="nonzero" opacity="1" stroke="#af916c" stroke-linecap="butt" stroke-linejoin="round" stroke-width="1.18989" vectornator:layerName="Curve 1"/>
</g>
<g id="Layer-3" vectornator:layerName="Layer 3">
<path d="M86.0642 63.925C86.0642 63.925 88.3916 61.5125 91.5497 64.7544C94.7078 67.9963 92.6197 70.004 92.6197 70.004C92.6197 70.004 91.6034 72.8049 88.0274 70.798C84.4513 68.7911 84.3398 65.2819 86.0642 63.925Z" fill="#67151c" fill-rule="nonzero" opacity="1" stroke="#67151c" stroke-linecap="butt" stroke-linejoin="round" stroke-width="0.862818" vectornator:layerName="Curve 2"/>
<path d="M80.9438 54.2293C80.9438 54.2293 84.6236 53.8516 85.1864 57.3971C85.7492 60.9427 82.5544 61.1839 82.5544 61.1839C82.5544 61.1839 79.7594 62.4371 77.9906 59.4588C76.2218 56.4805 78.5102 54.2409 80.9438 54.2293Z" fill="#67151c" fill-rule="nonzero" opacity="1" stroke="#67151c" stroke-linecap="butt" stroke-linejoin="round" stroke-width="0.862818" vectornator:layerName="Curve 3"/>
<path d="M94.3771 55.3667C94.3771 55.3667 98.0569 54.989 98.6197 58.5346C99.1825 62.0801 95.9877 62.3213 95.9877 62.3213C95.9877 62.3213 93.1927 63.5746 91.4239 60.5962C89.6551 57.6179 91.9435 55.3783 94.3771 55.3667Z" fill="#67151c" fill-rule="nonzero" opacity="1" stroke="#67151c" stroke-linecap="butt" stroke-linejoin="round" stroke-width="0.862818" vectornator:layerName="Curve 4"/>
<path d="M80.2777 44.168C80.2777 44.168 84.5263 43.7904 85.1761 47.3359C85.826 50.8814 82.1372 51.1226 82.1372 51.1226C82.1372 51.1226 78.9102 52.3759 76.8679 49.3976C74.8257 46.4192 77.4678 44.1797 80.2777 44.168Z" fill="#67151c" fill-rule="nonzero" opacity="1" stroke="#67151c" stroke-linecap="butt" stroke-linejoin="round" stroke-width="0.862818" vectornator:layerName="Curve 5"/>
<path d="M89.0691 48.4926C89.0691 48.4926 91.9174 48.1034 92.3531 51.7577C92.7887 55.412 90.3158 55.6606 90.3158 55.6606C90.3158 55.6606 88.1523 56.9523 86.7831 53.8826C85.414 50.8129 87.1853 48.5046 89.0691 48.4926Z" fill="#67151c" fill-rule="nonzero" opacity="1" stroke="#67151c" stroke-linecap="butt" stroke-linejoin="round" stroke-width="0.862818" vectornator:layerName="Curve 6"/>
</g>
<g id="Layer-4" vectornator:layerName="Layer 4">
<path d="M81.0891 49.0629C81.0891 48.7339 81.2047 48.4543 81.4361 48.224C81.6674 47.9937 81.9465 47.8786 82.2734 47.8786C82.6002 47.8786 82.8793 47.9943 83.1106 48.2256C83.342 48.457 83.4576 48.736 83.4576 49.0629C83.4576 49.3897 83.342 49.6688 83.1106 49.9002C82.8793 50.1315 82.6002 50.2472 82.2734 50.2472C81.9465 50.2472 81.6674 50.1315 81.4361 49.9002C81.2047 49.6688 81.0891 49.3897 81.0891 49.0629ZM77.9947 46.7453C77.9947 46.4184 78.1103 46.1393 78.3417 45.908C78.573 45.6766 78.8521 45.561 79.1789 45.561C79.5058 45.561 79.7849 45.6766 80.0162 45.908C80.2475 46.1393 80.3632 46.4184 80.3632 46.7453C80.3632 47.0721 80.2481 47.3512 80.0178 47.5825C79.7875 47.8139 79.5079 47.9295 79.1789 47.9295C78.8521 47.9295 78.573 47.8139 78.3417 47.5825C78.1103 47.3512 77.9947 47.0721 77.9947 46.7453ZM79.6788 50.2758L79.1853 50.2758L81.7672 45.5387L82.2511 45.5387L79.6788 50.2758ZM81.9168 48.7031C81.817 48.8029 81.7672 48.9228 81.7672 49.0629C81.7672 49.203 81.8165 49.3224 81.9152 49.421C82.0139 49.5197 82.1333 49.5691 82.2734 49.5691C82.4134 49.5691 82.5328 49.5197 82.6315 49.421C82.7302 49.3224 82.7795 49.203 82.7795 49.0629C82.7795 48.9228 82.7302 48.8034 82.6315 48.7047C82.5328 48.6061 82.4134 48.5567 82.2734 48.5567C82.1333 48.5567 82.0144 48.6055 81.9168 48.7031ZM79.6851 46.7453C79.6851 46.6052 79.6358 46.4858 79.5371 46.3871C79.4384 46.2884 79.319 46.2391 79.1789 46.2391C79.0389 46.2391 78.9195 46.2884 78.8208 46.3871C78.7221 46.4858 78.6727 46.6052 78.6727 46.7453C78.6727 46.8853 78.7221 47.0047 78.8208 47.1034C78.9195 47.2021 79.0389 47.2514 79.1789 47.2514C79.319 47.2514 79.4384 47.2021 79.5371 47.1034C79.6358 47.0047 79.6851 46.8853 79.6851 46.7453Z" fill="#ffffff" opacity="1" stroke="none" vectornator:layerName="Text 1"/>
<path d="M89.1012 52.8782C89.0163 52.9504 88.9452 53.0342 88.8879 53.1297L90.9031 53.1297L90.9031 53.9288L87.7419 53.9288C87.7503 53.5977 87.8214 53.2953 87.9552 53.0215C88.0846 52.7138 88.3902 52.388 88.872 52.0442C89.2901 51.7449 89.5607 51.5305 89.6838 51.4011C89.8727 51.1994 89.9672 50.9787 89.9672 50.7389C89.9672 50.5436 89.913 50.3813 89.8048 50.2518C89.6966 50.1223 89.5416 50.0576 89.34 50.0576C89.0641 50.0576 88.8763 50.1605 88.7765 50.3664C88.7192 50.4853 88.6852 50.6742 88.6746 50.9331L87.7928 50.9331C87.8076 50.5405 87.8787 50.2232 88.0061 49.9812C88.248 49.5207 88.6778 49.2904 89.2954 49.2904C89.7836 49.2904 90.172 49.4257 90.4606 49.6963C90.7493 49.9669 90.8936 50.325 90.8936 50.7707C90.8936 51.1124 90.7917 51.4159 90.588 51.6812C90.4542 51.8574 90.2346 52.0537 89.929 52.2702L89.566 52.5281C89.3389 52.6894 89.184 52.8061 89.1012 52.8782Z" fill="#ffffff" opacity="1" stroke="none" vectornator:layerName="Text 2"/>
<path d="M96.0847 57.3286L96.0847 58.1659L92.6369 58.1659L92.6369 57.3286L96.0847 57.3286ZM92.6369 59.6526L92.6369 58.8153L96.0847 58.8153L96.0847 59.6526L92.6369 59.6526Z" fill="#ffffff" opacity="1" stroke="none" vectornator:layerName="Text 3"/>
<path d="M89.5463 68.1885C89.5799 68.6139 89.639 68.9523 89.7237 69.2037L88.8307 69.5046C88.5926 68.7113 88.5753 67.809 88.7788 66.7976C88.9178 66.1663 89.0589 65.7111 89.2024 65.4322L87.0211 66.1669L86.773 65.3905L89.8624 64.3498L90.089 65.0226C90.003 65.1927 89.9 65.4788 89.7801 65.8808C89.6603 66.2829 89.5812 66.683 89.5428 67.0811C89.5116 67.394 89.5128 67.7631 89.5463 68.1885Z" fill="#ffffff" opacity="1" stroke="none" vectornator:layerName="Text 4"/>
<path d="M80.3989 59.378L80.3989 58.0663L79.0937 58.0663L79.0937 57.2354L80.3989 57.2354L80.3989 55.9302L81.2362 55.9302L81.2362 57.2354L82.5415 57.2354L82.5415 58.0663L81.2362 58.0663L81.2362 59.378L80.3989 59.378Z" fill="#ffffff" opacity="1" stroke="none" vectornator:layerName="Text 5"/>
</g>
</svg>
